<?xml version="1.0" encoding="UTF-8" standalone="no"?>
<!DOCTYPE svg PUBLIC "-//W3C//DTD SVG 1.1//EN"
 "http://www.w3.org/Graphics/SVG/1.1/DTD/svg11.dtd">
<!-- Generated by graphviz version 2.40.1 (20161225.0304)
 -->
<!-- Title: G Pages: 1 -->
<svg width="327pt" height="204pt"
 viewBox="0.00 0.00 327.00 204.00" xmlns="http://www.w3.org/2000/svg" xmlns:xlink="http://www.w3.org/1999/xlink">
<g id="graph0" class="graph" transform="scale(1 1) rotate(0) translate(4 200)">
<title>G</title>
<polygon fill="#ffffff" stroke="transparent" points="-4,4 -4,-200 323,-200 323,4 -4,4"/>
<g id="clust1" class="cluster">
<title>cluster_Global</title>
<path fill="none" stroke="#c0c0c0" d="M20,-8C20,-8 299,-8 299,-8 305,-8 311,-14 311,-20 311,-20 311,-176 311,-176 311,-182 305,-188 299,-188 299,-188 20,-188 20,-188 14,-188 8,-182 8,-176 8,-176 8,-20 8,-20 8,-14 14,-8 20,-8"/>
<text text-anchor="middle" x="159.5" y="-175.2" font-family="Times,serif" font-size="11.00" fill="#c0c0c0">Global</text>
</g>
<!-- \\Projet -->
<g id="node1" class="node">
<title>\\Projet</title>
<polygon fill="none" stroke="#000000" points="266,-160 209,-160 209,-124 266,-124 266,-160"/>
<text text-anchor="middle" x="237.5" y="-139.2" font-family="Courier,monospace" font-size="11.00" fill="#000000">Projet</text>
</g>
<!-- \\Model -->
<g id="node2" class="node">
<title>\\Model</title>
<polygon fill="none" stroke="#000000" points="100,-52 16,-52 16,-16 100,-16 100,-52"/>
<text text-anchor="start" x="24" y="-37.2" font-family="Courier,monospace" font-size="11.00" fill="#000000">«abstract»</text>
<text text-anchor="start" x="41" y="-25.2" font-family="Courier,monospace" font-size="11.00" fill="#000000">Model</text>
</g>
<!-- \\ProjetsController -->
<g id="node3" class="node">
<title>\\ProjetsController</title>
<polygon fill="none" stroke="#000000" points="303,-106 172,-106 172,-70 303,-70 303,-106"/>
<text text-anchor="middle" x="237.5" y="-85.2" font-family="Courier,monospace" font-size="11.00" fill="#000000">ProjetsController</text>
</g>
<!-- \\ProjetManager -->
<g id="node4" class="node">
<title>\\ProjetManager</title>
<polygon fill="none" stroke="#000000" points="289.5,-52 185.5,-52 185.5,-16 289.5,-16 289.5,-52"/>
<text text-anchor="middle" x="237.5" y="-31.2" font-family="Courier,monospace" font-size="11.00" fill="#000000">ProjetManager</text>
</g>
<!-- \\ProjetManager&#45;&gt;\\Model -->
<g id="edge1" class="edge">
<title>\\ProjetManager&#45;&gt;\\Model</title>
<path fill="none" stroke="#000000" d="M185.0986,-34C161.5718,-34 133.8776,-34 110.3561,-34"/>
<polygon fill="none" stroke="#000000" points="110.2151,-30.5001 100.215,-34 110.215,-37.5001 110.2151,-30.5001"/>
</g>
</g>
</svg>
